<svg width="53" height="53" viewBox="0 0 53 53" fill="none" xmlns="http://www.w3.org/2000/svg">
<path d="M26.5 3.3125C21.914 3.3125 17.4309 4.67242 13.6177 7.2203C9.80456 9.76817 6.83256 13.3896 5.07755 17.6265C3.32255 21.8635 2.86336 26.5257 3.75805 31.0237C4.65275 35.5216 6.86114 39.6532 10.104 42.896C13.3468 46.1389 17.4784 48.3473 21.9764 49.242C26.4743 50.1367 31.1365 49.6775 35.3735 47.9225C39.6104 46.1674 43.2318 43.1954 45.7797 39.3823C48.3276 35.5691 49.6875 31.0861 49.6875 26.5C49.6805 20.3524 47.2353 14.4587 42.8883 10.1117C38.5413 5.76473 32.6476 3.31951 26.5 3.3125ZM26.5 46.375C21.2288 46.375 16.1735 44.281 12.4463 40.5537C8.71898 36.8265 6.62501 31.7712 6.62501 26.5C6.62501 21.2288 8.71898 16.1735 12.4463 12.4463C16.1735 8.71897 21.2288 6.625 26.5 6.625V26.5L40.5467 40.5467C38.7045 42.3954 36.5153 43.8619 34.1048 44.8621C31.6942 45.8624 29.1098 46.3765 26.5 46.375Z" fill="black"/>
</svg>
