<svg width="53" height="53" viewBox="0 0 53 53" fill="none" xmlns="http://www.w3.org/2000/svg">
<path fill-rule="evenodd" clip-rule="evenodd" d="M2.20898 26.5C2.20898 13.0844 13.085 2.20833 26.5007 2.20833C39.9163 2.20833 50.7923 13.0844 50.7923 26.5C50.7923 39.9156 39.9163 50.7917 26.5007 50.7917C13.085 50.7917 2.20898 39.9156 2.20898 26.5ZM32.684 20.7583C32.3326 20.2898 31.8094 19.98 31.2296 19.8972C30.6498 19.8144 30.0609 19.9652 29.5923 20.3167C29.1238 20.6681 28.814 21.1912 28.7312 21.771C28.6483 22.3508 28.7992 22.9398 29.1507 23.4083L31.4694 26.5L29.1507 29.5917C28.7992 30.0602 28.6483 30.6492 28.7312 31.229C28.814 31.8088 29.1238 32.3319 29.5923 32.6833C30.0609 33.0347 30.6498 33.1856 31.2296 33.1028C31.8094 33.02 32.3326 32.7102 32.684 32.2417L34.2298 30.1813L35.7757 32.2417C36.1271 32.7102 36.6502 33.02 37.23 33.1028C37.5171 33.1438 37.8095 33.1279 38.0904 33.0559C38.3713 32.9839 38.6353 32.8573 38.8673 32.6833C39.0993 32.5093 39.2948 32.2913 39.4425 32.0418C39.5903 31.7923 39.6874 31.5161 39.7285 31.229C39.7695 30.9419 39.7535 30.6495 39.6816 30.3686C39.6096 30.0877 39.483 29.8237 39.309 29.5917L36.9902 26.5L39.309 23.4083C39.6604 22.9398 39.8113 22.3508 39.7285 21.771C39.6456 21.1912 39.3359 20.6681 38.8673 20.3167C38.6353 20.1427 38.3713 20.0161 38.0904 19.9441C37.8095 19.8721 37.5171 19.8562 37.23 19.8972C36.6502 19.98 36.1271 20.2898 35.7757 20.7583L34.2298 22.8187L32.684 20.7583ZM17.6673 22.0833C17.6673 21.4976 17.4347 20.9359 17.0205 20.5218C16.6064 20.1077 16.0447 19.875 15.459 19.875C14.8733 19.875 14.3116 20.1077 13.8975 20.5218C13.4833 20.9359 13.2507 21.4976 13.2507 22.0833V26.5C13.2507 27.5887 13.5598 29.1743 14.5492 30.5501C15.6224 32.0429 17.3891 33.125 19.8757 33.125C22.3622 33.125 24.1289 32.0385 25.2022 30.5501C26.1915 29.1743 26.5007 27.5909 26.5007 26.5V22.0833C26.5007 21.4976 26.268 20.9359 25.8538 20.5218C25.4397 20.1077 24.878 19.875 24.2923 19.875C23.7066 19.875 23.1449 20.1077 22.7308 20.5218C22.3166 20.9359 22.084 21.4976 22.084 22.0833V26.5C22.084 26.882 21.9515 27.507 21.6158 27.9707C21.3641 28.3219 20.9224 28.7083 19.8757 28.7083C18.8289 28.7083 18.3872 28.3219 18.1355 27.9707C17.8415 27.5356 17.679 27.025 17.6673 26.5V22.0833Z" fill="black"/>
</svg>
