<svg width="53" height="53" viewBox="0 0 53 53" fill="none" xmlns="http://www.w3.org/2000/svg">
<path d="M36.1277 30.9167C36.3044 29.4592 36.4369 28.0017 36.4369 26.5C36.4369 24.9983 36.3044 23.5408 36.1277 22.0833H43.5919C43.9452 23.4967 44.166 24.9762 44.166 26.5C44.166 28.0237 43.9452 29.5033 43.5919 30.9167M32.2189 43.195C33.5439 40.7437 34.5598 38.0937 35.2664 35.3333H41.781C39.6415 39.0174 36.2472 41.8082 32.2189 43.195ZM31.6669 30.9167H21.3319C21.111 29.4592 20.9785 28.0017 20.9785 26.5C20.9785 24.9983 21.111 23.5187 21.3319 22.0833H31.6669C31.8656 23.5187 32.0202 24.9983 32.0202 26.5C32.0202 28.0017 31.8656 29.4592 31.6669 30.9167ZM26.4994 44.0783C24.6664 41.4283 23.1869 38.4912 22.2814 35.3333H30.7173C29.8118 38.4912 28.3323 41.4283 26.4994 44.0783ZM17.666 17.6667H11.2177C13.3352 13.9726 16.727 11.1774 20.7577 9.80499C19.4327 12.2562 18.4389 14.9062 17.666 17.6667ZM11.2177 35.3333H17.666C18.4389 38.0937 19.4327 40.7437 20.7577 43.195C16.7355 41.8074 13.3484 39.0162 11.2177 35.3333ZM9.40685 30.9167C9.05352 29.5033 8.83268 28.0237 8.83268 26.5C8.83268 24.9762 9.05352 23.4967 9.40685 22.0833H16.871C16.6943 23.5408 16.5618 24.9983 16.5618 26.5C16.5618 28.0017 16.6943 29.4592 16.871 30.9167M26.4994 8.89957C28.3323 11.5496 29.8118 14.5087 30.7173 17.6667H22.2814C23.1869 14.5087 24.6664 11.5496 26.4994 8.89957ZM41.781 17.6667H35.2664C34.5753 14.9315 33.5518 12.2913 32.2189 9.80499C36.2823 11.1962 39.661 14.0008 41.781 17.6667ZM26.4994 4.41666C14.2873 4.41666 4.41602 14.3542 4.41602 26.5C4.41602 32.3569 6.74265 37.9738 10.8841 42.1153C12.9347 44.1659 15.3692 45.7925 18.0484 46.9023C20.7277 48.0121 23.5993 48.5833 26.4994 48.5833C32.3562 48.5833 37.9732 46.2567 42.1146 42.1153C46.2561 37.9738 48.5827 32.3569 48.5827 26.5C48.5827 23.6 48.0115 20.7283 46.9017 18.0491C45.7919 15.3698 44.1653 12.9353 42.1146 10.8847C40.064 8.83409 37.6296 7.20744 34.9503 6.09765C32.271 4.98786 29.3994 4.41666 26.4994 4.41666Z" fill="black"/>
</svg>
