<svg width="79" height="79" viewBox="0 0 79 79" fill="none" xmlns="http://www.w3.org/2000/svg">
<path d="M53.8523 46.0833C54.1157 43.9108 54.3132 41.7383 54.3132 39.4999C54.3132 37.2616 54.1157 35.0891 53.8523 32.9166H64.9782C65.5048 35.0233 65.834 37.2287 65.834 39.4999C65.834 41.7712 65.5048 43.9766 64.9782 46.0833M48.0261 64.3849C50.0011 60.7312 51.5152 56.7812 52.5686 52.6666H62.279C59.0899 58.158 54.0304 62.3177 48.0261 64.3849ZM47.2032 46.0833H31.7982C31.469 43.9108 31.2715 41.7383 31.2715 39.4999C31.2715 37.2616 31.469 35.0562 31.7982 32.9166H47.2032C47.4994 35.0562 47.7298 37.2616 47.7298 39.4999C47.7298 41.7383 47.4994 43.9108 47.2032 46.0833ZM39.5007 65.7016C36.7686 61.7516 34.5632 57.3737 33.2136 52.6666H45.7877C44.4382 57.3737 42.2327 61.7516 39.5007 65.7016ZM26.334 26.3333H16.7223C19.8786 20.827 24.9344 16.6606 30.9423 14.6149C28.9673 18.2687 27.4861 22.2187 26.334 26.3333ZM16.7223 52.6666H26.334C27.4861 56.7812 28.9673 60.7312 30.9423 64.3849C24.947 62.3167 19.8983 58.1562 16.7223 52.6666ZM14.0232 46.0833C13.4965 43.9766 13.1673 41.7712 13.1673 39.4999C13.1673 37.2287 13.4965 35.0233 14.0232 32.9166H25.149C24.8857 35.0891 24.6882 37.2616 24.6882 39.4999C24.6882 41.7383 24.8857 43.9108 25.149 46.0833M39.5007 13.2653C42.2327 17.2153 44.4382 21.6262 45.7877 26.3333H33.2136C34.5632 21.6262 36.7686 17.2153 39.5007 13.2653ZM62.279 26.3333H52.5686C51.5383 22.2564 50.0128 18.321 48.0261 14.6149C54.0827 16.6887 59.119 20.8691 62.279 26.3333ZM39.5007 6.58325C21.2977 6.58325 6.58398 21.3958 6.58398 39.4999C6.58398 48.23 10.052 56.6024 16.2251 62.7755C19.2816 65.8321 22.9104 68.2567 26.904 69.911C30.8976 71.5652 35.178 72.4166 39.5007 72.4166C48.2307 72.4166 56.6032 68.9486 62.7762 62.7755C68.9493 56.6024 72.4173 48.23 72.4173 39.4999C72.4173 35.1772 71.5659 30.8969 69.9117 26.9033C68.2575 22.9096 65.8328 19.2809 62.7762 16.2243C59.7197 13.1677 56.091 10.7431 52.0973 9.08888C48.1037 7.43467 43.8233 6.58325 39.5007 6.58325Z" fill="black"/>
</svg>
