<svg width="79" height="79" viewBox="0 0 79 79" fill="none" xmlns="http://www.w3.org/2000/svg">
<path d="M39.4993 29.625C36.8803 29.625 34.3686 30.6654 32.5167 32.5173C30.6647 34.3692 29.6243 36.881 29.6243 39.5C29.6243 42.119 30.6647 44.6308 32.5167 46.4827C34.3686 48.3346 36.8803 49.375 39.4993 49.375C42.1184 49.375 44.6301 48.3346 46.482 46.4827C48.334 44.6308 49.3743 42.119 49.3743 39.5C49.3743 36.881 48.334 34.3692 46.482 32.5173C44.6301 30.6654 42.1184 29.625 39.4993 29.625ZM39.4993 55.9583C35.1343 55.9583 30.9481 54.2243 27.8615 51.1378C24.775 48.0513 23.041 43.865 23.041 39.5C23.041 35.135 24.775 30.9487 27.8615 27.8622C30.9481 24.7757 35.1343 23.0417 39.4993 23.0417C43.8644 23.0417 48.0506 24.7757 51.1371 27.8622C54.2237 30.9487 55.9577 35.135 55.9577 39.5C55.9577 43.865 54.2237 48.0513 51.1371 51.1378C48.0506 54.2243 43.8644 55.9583 39.4993 55.9583ZM39.4993 14.8125C23.041 14.8125 8.9856 25.0496 3.29102 39.5C8.9856 53.9504 23.041 64.1875 39.4993 64.1875C55.9577 64.1875 70.0131 53.9504 75.7077 39.5C70.0131 25.0496 55.9577 14.8125 39.4993 14.8125Z" fill="black"/>
</svg>
