<svg width="79" height="63" viewBox="0 0 79 63" fill="none" xmlns="http://www.w3.org/2000/svg">
<g clip-path="url(#clip0_555_16217)">
<path d="M60.2384 23.625H41.4759V30.5156C41.4759 35.4006 37.4888 39.375 32.5884 39.375C27.6879 39.375 23.7009 35.4006 23.7009 30.5156V15.5532L15.6898 20.352C13.3074 21.767 11.8509 24.3387 11.8509 27.0949V32.9151L1.97586 38.5998C0.0872685 39.6826 -0.56695 42.0944 0.531643 43.977L10.4066 61.0313C11.4929 62.9139 13.9123 63.5537 15.8009 62.4709L28.5643 55.125H45.4259C49.7832 55.125 53.3259 51.5936 53.3259 47.25H55.3009C57.4857 47.25 59.2509 45.4905 59.2509 43.3125V35.4375H60.2384C61.8801 35.4375 63.2009 34.1209 63.2009 32.4844V26.5781C63.2009 24.9416 61.8801 23.625 60.2384 23.625ZM78.4701 19.0231L68.5951 1.96877C67.5088 0.0861566 65.0895 -0.553687 63.2009 0.529125L50.4374 7.87502H37.8221C36.3409 7.87502 34.8966 8.29338 33.6376 9.06858L29.5024 11.6403C28.3421 12.3539 27.6509 13.6213 27.6509 14.9748V30.5156C27.6509 33.235 29.8604 35.4375 32.5884 35.4375C35.3163 35.4375 37.5259 33.235 37.5259 30.5156V19.6875H60.2384C64.0526 19.6875 67.1509 22.776 67.1509 26.5781V30.085L77.0259 24.4002C78.9145 23.3051 79.5563 20.9057 78.4701 19.0231Z" fill="black"/>
</g>
<defs>
<clipPath id="clip0_555_16217">
<rect width="79" height="63" fill="white"/>
</clipPath>
</defs>
</svg>
