<svg width="205" height="54" viewBox="0 0 205 54" fill="none" xmlns="http://www.w3.org/2000/svg">
<path d="M80.5772 12.266H80.4551L80.7237 23.1623H75.3032V3.87587H82.8967L86.022 14.2546H86.1441L88.8543 3.87587H96.692V23.1623H91.0518L91.2227 12.3205L91.0762 12.2933L87.8533 23.1623H83.7513L80.5772 12.266ZM97.9081 23.1623L104.72 3.87587H110.898L117.637 23.1623H111.313L110.409 20.3293H104.916L104.061 23.1623H97.9081ZM109.115 15.3715L107.724 10.6043L106.307 15.3715H109.115ZM129.976 23.1623L126.851 17.5235L123.848 23.1623H116.962L123.14 13.1105L117.28 3.87587H124.287L127.022 8.94265L129.634 3.87587H136.471L130.709 13.0288L137.081 23.1623H129.976ZM138.395 23.1623V3.87587H144.255V23.1623H138.395ZM152.753 12.266H152.631L152.899 23.1623H147.479V3.87587H155.073L158.198 14.2546H158.32L161.03 3.87587H168.868V23.1623H163.228L163.399 12.3205L163.252 12.2933L160.029 23.1623H155.927L152.753 12.266ZM179.851 23.7072C177.263 23.7072 175.277 22.9535 173.894 21.4462C172.527 19.9388 171.843 17.9866 171.843 15.5894V3.87587H177.654V14.8811C177.654 15.8073 177.849 16.5337 178.24 17.0604C178.647 17.5689 179.217 17.8231 179.949 17.8231C180.682 17.8231 181.243 17.5689 181.634 17.0604C182.04 16.5337 182.244 15.8073 182.244 14.8811V3.87587H188.031V15.5894C188.031 17.9685 187.314 19.9207 185.882 21.4462C184.466 22.9535 182.456 23.7072 179.851 23.7072ZM196.684 23.7072C195.316 23.7072 193.981 23.4439 192.679 22.9172C191.393 22.3905 190.303 21.6822 189.408 20.7924L192.948 16.4883C193.371 17.015 193.925 17.4599 194.608 17.8231C195.292 18.1864 195.976 18.368 196.659 18.368C197.521 18.368 197.953 18.0683 197.953 17.469C197.953 17.124 197.766 16.8425 197.392 16.6246C197.017 16.4066 196.187 16.0616 194.901 15.5894C193.517 15.0809 192.427 14.3999 191.63 13.5463C190.831 12.6928 190.433 11.4942 190.433 9.95056C190.433 8.80645 190.644 7.79854 191.068 6.92684C191.507 6.03697 192.085 5.33779 192.802 4.8293C193.517 4.32081 194.282 3.94851 195.097 3.71243C195.927 3.45817 196.789 3.33105 197.685 3.33105C198.84 3.33105 200.004 3.58531 201.176 4.0938C202.364 4.60229 203.398 5.30147 204.277 6.19134L200.664 10.3047C200.289 9.7962 199.817 9.39666 199.247 9.1061C198.693 8.79737 198.173 8.64301 197.685 8.64301C196.74 8.64301 196.269 8.93357 196.269 9.51471C196.269 9.78712 196.382 9.99596 196.611 10.1412C196.838 10.2684 197.294 10.4591 197.978 10.7133C198.449 10.8949 198.824 11.0402 199.101 11.1492C199.377 11.24 199.743 11.3943 200.2 11.6122C200.671 11.8302 201.046 12.039 201.323 12.2388C201.616 12.4386 201.933 12.7019 202.275 13.0288C202.633 13.3557 202.91 13.6917 203.105 14.0367C203.301 14.3817 203.463 14.7994 203.594 15.2898C203.74 15.762 203.813 16.2704 203.813 16.8152C203.813 18.9945 203.105 20.6925 201.689 21.9093C200.273 23.1079 198.604 23.7072 196.684 23.7072ZM80.5772 37.4114H80.4551L80.7237 48.3077H75.3032V29.0212H82.8967L86.022 39.3999H86.1441L88.8543 29.0212H96.692V48.3077H91.0518L91.2227 37.4658L91.0762 37.4386L87.8533 48.3077H83.7513L80.5772 37.4114ZM99.9103 48.3077V29.0212H111.801V34.4149H105.38V36.0766H111.41V41.1161H105.38V42.914H112.216V48.3077H99.9103ZM121.556 48.3077H114.622V29.0212H121.068C122.207 29.0212 123.265 29.112 124.242 29.2936C125.219 29.4752 126.155 29.8021 127.05 30.2743C127.962 30.7283 128.726 31.3094 129.345 32.0177C129.98 32.7078 130.484 33.6158 130.859 34.7418C131.234 35.8495 131.421 37.1208 131.421 38.5555C131.421 40.1899 131.152 41.6518 130.615 42.9412C130.078 44.2124 129.337 45.2295 128.393 45.9922C127.465 46.7549 126.424 47.3361 125.268 47.7356C124.112 48.117 122.875 48.3077 121.556 48.3077ZM121.508 34.5238H120.213V42.7505H121.288C124.12 42.7505 125.536 41.334 125.536 38.501C125.536 37.266 125.17 36.2945 124.437 35.5862C123.721 34.878 122.744 34.5238 121.508 34.5238ZM133.864 48.3077V29.0212H139.724V48.3077H133.864ZM140.947 48.3077L147.759 29.0212H153.936L160.675 48.3077H154.351L153.448 45.4746H147.954L147.1 48.3077H140.947ZM152.154 40.5168L150.762 35.7497L149.346 40.5168H152.154Z" fill="white"/>
<path d="M47.11 4.69238L25.1353 18.9614V49.6397L47.11 33.9438V4.69238Z" fill="#0E0E0E"/>
<path d="M3.16 6.05371L25.1348 19.6741V48.9579L3.16 33.9755V6.05371Z" fill="#0E0E0E"/>
<path d="M25.1348 35.3389V48.9593L36.1221 41.468V27.8477L25.1348 35.3389Z" fill="white"/>
<path d="M25.1348 35.3389V48.9593L14.1474 41.468V27.8477L25.1348 35.3389Z" fill="white"/>
<path d="M48.4992 7.41699V3.96361L45.5038 5.68226L25.1494 17.3611L5.39799 5.69494L2.38086 3.91287V7.41699V34.6578V35.7374L3.28351 36.3298L24.0375 49.9502L25.1191 50.6601L26.21 49.9646L47.5743 36.3442L48.4992 35.7546V34.6578V7.41699Z" stroke="white" stroke-width="4"/>
</svg>
