<svg width="53" height="53" viewBox="0 0 53 53" fill="none" xmlns="http://www.w3.org/2000/svg">
<path d="M41.9577 46.375C40.5223 46.375 39.2341 45.9606 38.0931 45.1317C36.9521 44.3028 36.1608 43.2451 35.7191 41.9583H24.291C21.8619 41.9583 19.7823 41.0934 18.0525 39.3635C16.3226 37.6337 15.4577 35.5542 15.4577 33.125C15.4577 30.6958 16.3226 28.6163 18.0525 26.8865C19.7823 25.1566 21.8619 24.2917 24.291 24.2917H28.7077C29.9223 24.2917 30.9624 23.8588 31.8281 22.9932C32.6937 22.1275 33.1258 21.0881 33.1244 19.875C33.1244 18.6604 32.6915 17.6203 31.8258 16.7546C30.9602 15.889 29.9208 15.4569 28.7077 15.4583H17.2796C16.8011 16.7465 16.0002 17.8051 14.8769 18.6339C13.7536 19.4628 12.475 19.8765 11.041 19.875C9.20074 19.875 7.6365 19.2309 6.34831 17.9427C5.06011 16.6545 4.41602 15.0903 4.41602 13.25C4.41602 11.4097 5.06011 9.84549 6.34831 8.55729C7.6365 7.2691 9.20074 6.625 11.041 6.625C12.4764 6.625 13.7558 7.03943 14.8791 7.86829C16.0024 8.69715 16.8018 9.75494 17.2773 11.0417H28.7077C31.1369 11.0417 33.2164 11.9066 34.9462 13.6365C36.6761 15.3663 37.541 17.4458 37.541 19.875C37.541 22.3042 36.6761 24.3837 34.9462 26.1135C33.2164 27.8434 31.1369 28.7083 28.7077 28.7083H24.291C23.0764 28.7083 22.0363 29.1412 21.1706 30.0068C20.305 30.8725 19.8729 31.9119 19.8743 33.125C19.8743 34.3396 20.3072 35.3797 21.1729 36.2454C22.0385 37.111 23.0779 37.5431 24.291 37.5417H35.7191C36.1976 36.2535 36.9985 35.1949 38.1218 34.3661C39.2451 33.5372 40.5237 33.1235 41.9577 33.125C43.798 33.125 45.3622 33.7691 46.6504 35.0573C47.9386 36.3455 48.5827 37.9097 48.5827 39.75C48.5827 41.5903 47.9386 43.1545 46.6504 44.4427C45.3622 45.7309 43.798 46.375 41.9577 46.375ZM11.041 15.4583C11.6667 15.4583 12.1916 15.2463 12.6156 14.8223C13.0396 14.3983 13.2508 13.8742 13.2493 13.25C13.2493 12.6243 13.0373 12.0995 12.6133 11.6755C12.1893 11.2515 11.6652 11.0402 11.041 11.0417C10.4153 11.0417 9.89047 11.2537 9.46647 11.6777C9.04247 12.1017 8.83121 12.6258 8.83268 13.25C8.83268 13.8757 9.04468 14.4005 9.46868 14.8245C9.89268 15.2485 10.4168 15.4598 11.041 15.4583Z" fill="black"/>
</svg>
