<svg width="53" height="53" viewBox="0 0 53 53" fill="none" xmlns="http://www.w3.org/2000/svg">
<path fill-rule="evenodd" clip-rule="evenodd" d="M26.6142 2.76041H26.3845C24.3992 2.76041 22.7452 2.76041 21.4334 2.93707C20.0466 3.12257 18.7945 3.53332 17.7897 4.53812C16.7827 5.54512 16.3719 6.79724 16.1864 8.18187C16.0606 9.12482 16.023 11.3751 16.0142 13.3052C11.5489 13.4532 8.86581 13.9743 7.00418 15.8382C4.41602 18.4241 4.41602 22.589 4.41602 30.9167C4.41602 39.2443 4.41602 43.4092 7.00418 45.9952C9.59014 48.5833 13.7551 48.5833 22.0827 48.5833H30.916C39.2436 48.5833 43.4086 48.5833 45.9945 45.9952C48.5827 43.4092 48.5827 39.2443 48.5827 30.9167C48.5827 22.589 48.5827 18.4241 45.9945 15.8382C44.1329 13.9743 41.4498 13.4532 36.9845 13.3074C36.9757 11.3751 36.9403 9.12482 36.8123 8.18407C36.6268 6.79724 36.216 5.54511 35.209 4.54032C34.2042 3.53332 32.9521 3.12257 31.5653 2.93707C30.2535 2.76041 28.5973 2.76041 26.6142 2.76041ZM33.672 13.2544C33.661 11.3839 33.6301 9.37216 33.5307 8.62353C33.3916 7.60549 33.1553 7.16824 32.8682 6.88116C32.5811 6.59407 32.1439 6.35778 31.1236 6.21866C30.0592 6.07732 28.6282 6.07291 26.4994 6.07291C24.3705 6.07291 22.9395 6.07732 21.8729 6.22086C20.8548 6.35778 20.4176 6.59407 20.1305 6.88337C19.8434 7.17045 19.6071 7.60549 19.468 8.62353C19.3686 9.37437 19.3355 11.3839 19.3267 13.2544C20.1901 13.25 21.111 13.25 22.0827 13.25H30.916C31.8899 13.25 32.8086 13.25 33.672 13.2544ZM26.4994 20.4271C26.9386 20.4271 27.3599 20.6016 27.6705 20.9122C27.9811 21.2228 28.1556 21.6441 28.1556 22.0833V22.1054C30.5605 22.7105 32.5723 24.6075 32.5723 27.2354C32.5723 27.6746 32.3978 28.0959 32.0872 28.4065C31.7766 28.7171 31.3553 28.8916 30.916 28.8916C30.4768 28.8916 30.0555 28.7171 29.7449 28.4065C29.4343 28.0959 29.2598 27.6746 29.2598 27.2354C29.2598 26.3874 28.319 25.2125 26.4994 25.2125C24.6797 25.2125 23.7389 26.3874 23.7389 27.2354C23.7389 28.0834 24.6797 29.2604 26.4994 29.2604C29.5579 29.2604 32.5723 31.3804 32.5723 34.5979C32.5723 37.2259 30.5605 39.1206 28.1556 39.7279V39.75C28.1556 40.1893 27.9811 40.6105 27.6705 40.9211C27.3599 41.2317 26.9386 41.4062 26.4994 41.4062C26.0601 41.4062 25.6388 41.2317 25.3282 40.9211C25.0176 40.6105 24.8431 40.1893 24.8431 39.75V39.7279C22.4382 39.1228 20.4264 37.2259 20.4264 34.5979C20.4264 34.1587 20.6009 33.7374 20.9115 33.4268C21.2221 33.1162 21.6434 32.9417 22.0827 32.9417C22.5219 32.9417 22.9432 33.1162 23.2538 33.4268C23.5644 33.7374 23.7389 34.1587 23.7389 34.5979C23.7389 35.4459 24.6797 36.6208 26.4994 36.6208C28.319 36.6208 29.2598 35.4459 29.2598 34.5979C29.2598 33.75 28.319 32.5729 26.4994 32.5729C23.4408 32.5729 20.4264 30.4529 20.4264 27.2354C20.4264 24.6075 22.4382 22.7105 24.8431 22.1054V22.0833C24.8431 21.6441 25.0176 21.2228 25.3282 20.9122C25.6388 20.6016 26.0601 20.4271 26.4994 20.4271Z" fill="black"/>
</svg>
