<svg width="53" height="53" viewBox="0 0 53 53" fill="none" xmlns="http://www.w3.org/2000/svg">
<path fill-rule="evenodd" clip-rule="evenodd" d="M45.0708 19.5658C44.9421 19.5596 44.8132 19.5574 44.6843 19.5592H39.307C34.908 19.5592 31.1406 23.0506 31.1406 27.6042C31.1406 32.1577 34.908 35.6491 39.3093 35.6491H44.6821C44.8168 35.6491 44.9471 35.6491 45.0686 35.6403C45.9766 35.5823 46.8325 35.1962 47.4769 34.5538C48.1213 33.9115 48.5102 33.0567 48.571 32.1489C48.5798 32.0186 48.5798 31.8795 48.5798 31.7514V23.4569C48.5798 23.3288 48.5798 23.1897 48.571 23.0594C48.5102 22.1519 48.1217 21.2975 47.4778 20.6552C46.8338 20.0129 45.9784 19.6265 45.0708 19.568V19.5658ZM38.8367 29.7484C39.9695 29.7484 40.8904 28.79 40.8904 27.6042C40.8904 26.4183 39.9695 25.4599 38.8367 25.4599C37.7038 25.4599 36.7851 26.4183 36.7851 27.6042C36.7851 28.79 37.7016 29.7484 38.8367 29.7484Z" fill="black"/>
<path fill-rule="evenodd" clip-rule="evenodd" d="M44.6828 38.8666C44.7567 38.8641 44.8303 38.8789 44.8975 38.9099C44.9647 38.941 45.0237 38.9874 45.0697 39.0454C45.1157 39.1034 45.1474 39.1714 45.1622 39.2439C45.1771 39.3165 45.1748 39.3915 45.1553 39.4629C44.7269 40.9911 44.049 42.294 42.9603 43.3893C41.3681 44.9948 39.3474 45.7081 36.852 46.0459C34.4273 46.375 31.3312 46.375 27.418 46.375H22.9196C19.0087 46.375 15.9104 46.375 13.4856 46.0459C10.9902 45.7081 8.9696 44.9948 7.37739 43.3893C5.78518 41.7861 5.07852 39.75 4.74285 37.2347C4.41602 34.7901 4.41602 31.6675 4.41602 27.7256V27.4827C4.41602 23.5408 4.41602 20.416 4.74285 17.9736C5.07852 15.4583 5.78518 13.4266 7.37518 11.8168C8.96739 10.2135 10.988 9.49802 13.4834 9.16236C15.9104 8.83331 19.0087 8.83331 22.9196 8.83331H27.418C31.329 8.83331 34.4273 8.83331 36.852 9.16236C39.3474 9.50023 41.3681 10.2135 42.9603 11.8168C44.049 12.9143 44.7269 14.2172 45.1553 15.7476C45.1744 15.8189 45.1764 15.8937 45.1613 15.9659C45.1463 16.0381 45.1145 16.1058 45.0685 16.1635C45.0226 16.2213 44.9638 16.2675 44.8968 16.2984C44.8298 16.3293 44.7565 16.3441 44.6828 16.3416H39.3099C33.2723 16.3416 27.9524 21.1492 27.9524 27.6041C27.9524 34.0591 33.2745 38.8666 39.3121 38.8666H44.6828ZM12.3969 17.4149C12.1867 17.4158 11.9787 17.458 11.7847 17.5393C11.5908 17.6206 11.4148 17.7392 11.2668 17.8885C11.1187 18.0378 11.0015 18.2148 10.9218 18.4094C10.8422 18.6039 10.8016 18.8123 10.8025 19.0226C10.8025 19.9125 11.5158 20.6324 12.3969 20.6324H20.9123C21.7956 20.6324 22.5089 19.9125 22.5089 19.0226C22.5101 18.5977 22.3426 18.1898 22.0432 17.8884C21.7439 17.5869 21.3371 17.4166 20.9123 17.4149H12.3969Z" fill="black"/>
</svg>
