<svg width="79" height="79" viewBox="0 0 79 79" fill="none" xmlns="http://www.w3.org/2000/svg">
<path d="M62.5423 69.125C60.4027 69.125 58.4826 68.5073 56.7819 67.2718C55.0812 66.0363 53.9017 64.4596 53.2434 62.5417H36.209C32.5882 62.5417 29.4885 61.2524 26.91 58.674C24.3316 56.0955 23.0423 52.9958 23.0423 49.375C23.0423 45.7542 24.3316 42.6545 26.91 40.076C29.4885 37.4976 32.5882 36.2083 36.209 36.2083H42.7923C44.6027 36.2083 46.1531 35.5632 47.4434 34.2728C48.7338 32.9825 49.3778 31.4332 49.3757 29.625C49.3757 27.8146 48.7305 26.2642 47.4402 24.9739C46.1498 23.6835 44.6005 23.0395 42.7923 23.0417H25.7579C25.0447 24.9618 23.851 26.5396 22.1766 27.7751C20.5022 29.0106 18.5964 29.6272 16.459 29.625C13.7159 29.625 11.3843 28.6649 9.46419 26.7448C7.54405 24.8247 6.58398 22.4931 6.58398 19.75C6.58398 17.0069 7.54405 14.6753 9.46419 12.7552C11.3843 10.8351 13.7159 9.875 16.459 9.875C18.5986 9.875 20.5055 10.4927 22.1799 11.7282C23.8543 12.9637 25.0458 14.5404 25.7547 16.4583H42.7923C46.4132 16.4583 49.5128 17.7476 52.0913 20.326C54.6698 22.9045 55.959 26.0042 55.959 29.625C55.959 33.2458 54.6698 36.3455 52.0913 38.924C49.5128 41.5024 46.4132 42.7917 42.7923 42.7917H36.209C34.3986 42.7917 32.8482 43.4368 31.5579 44.7272C30.2675 46.0175 29.6235 47.5668 29.6257 49.375C29.6257 51.1854 30.2708 52.7358 31.5612 54.0261C32.8515 55.3165 34.4008 55.9605 36.209 55.9583H53.2434C53.9566 54.0382 55.1503 52.4604 56.8247 51.2249C58.4991 49.9894 60.4049 49.3728 62.5423 49.375C65.2854 49.375 67.617 50.3351 69.5371 52.2552C71.4573 54.1753 72.4173 56.5069 72.4173 59.25C72.4173 61.9931 71.4573 64.3247 69.5371 66.2448C67.617 68.1649 65.2854 69.125 62.5423 69.125ZM16.459 23.0417C17.3916 23.0417 18.1739 22.7257 18.8059 22.0937C19.4379 21.4617 19.7528 20.6804 19.7507 19.75C19.7507 18.8174 19.4347 18.035 18.8027 17.403C18.1707 16.771 17.3894 16.4561 16.459 16.4583C15.5263 16.4583 14.744 16.7743 14.112 17.4063C13.48 18.0383 13.1651 18.8196 13.1673 19.75C13.1673 20.6826 13.4833 21.465 14.1153 22.097C14.7473 22.729 15.5285 23.0439 16.459 23.0417Z" fill="black"/>
</svg>
