<svg width="79" height="79" viewBox="0 0 79 79" fill="none" xmlns="http://www.w3.org/2000/svg">
<path d="M7.57018 24.0292C8.88684 22.7126 10.8619 22.7126 12.1785 24.0292L32.916 44.7668L47.0702 30.6126C47.7285 29.9542 48.3868 29.6251 49.3743 29.6251C50.3618 29.6251 51.0202 29.9542 51.6785 30.6126L71.4285 50.3626C72.0868 51.0209 72.416 51.6792 72.416 52.6667C72.416 54.6417 71.0993 55.9584 69.1243 55.9584C68.1368 55.9584 67.4785 55.6292 66.8202 54.9709L49.3743 37.5251L35.2202 51.6792C34.891 52.0084 34.5618 52.3376 34.2327 52.3376C33.9035 52.6667 33.2452 52.6667 32.916 52.6667C32.2577 52.6667 31.2702 52.3376 30.941 51.6792H30.6118L7.57018 28.6376C6.25351 27.3209 6.25351 25.3459 7.57018 24.0292Z" fill="black"/>
</svg>
